<svg xmlns="http://www.w3.org/2000/svg" width="560" height="140" viewBox="0 0 560 140" fill="none">
  <!-- Icon -->
  <g transform="translate(18,20)">
    <!-- Honey drop -->
    <path d="M58 10c12 18 24 34 24 52 0 17-11 30-24 30S34 79 34 62c0-18 12-34 24-52Z" fill="#F5B700" stroke="#C98A00" stroke-width="4" stroke-linejoin="round"></path>
    <!-- Honey shine -->
    <path d="M55 28c-7 10-10 18-10 26" stroke="#FFE39A" stroke-width="6" stroke-linecap="round" opacity=".9"></path>

    <!-- Simple bee stripe -->
    <path d="M40 60h36" stroke="#8A5A1E" stroke-width="4" stroke-linecap="round" opacity=".8"></path>
    <path d="M42 72h32" stroke="#8A5A1E" stroke-width="4" stroke-linecap="round" opacity=".65"></path>

    <!-- Small wings (outline) -->
    <path d="M30 36c-10 3-16 9-16 16 0 10 12 14 20 8" fill="none" stroke="#D8C3A5" stroke-width="4" stroke-linecap="round" stroke-linejoin="round"></path>
    <path d="M86 36c10 3 16 9 16 16 0 10-12 14-20 8" fill="none" stroke="#D8C3A5" stroke-width="4" stroke-linecap="round" stroke-linejoin="round"></path>

    <!-- Antenna -->
    <path d="M52 18c-6-8-12-10-18-9" stroke="#8A5A1E" stroke-width="4" stroke-linecap="round"></path>
    <path d="M64 18c6-8 12-10 18-9" stroke="#8A5A1E" stroke-width="4" stroke-linecap="round"></path>
    <circle cx="33" cy="9" r="4" fill="#8A5A1E"></circle>
    <circle cx="83" cy="9" r="4" fill="#8A5A1E"></circle>
  </g>

  <!-- Wordmark -->
  <g transform="translate(140,38)">
    <text x="0" y="40" font-family="system-ui, -apple-system, Segoe UI, Roboto, Arial" font-size="44" font-weight="800" fill="#2D2418">
      Madu <tspan fill="#C98A00">Beeneral</tspan>
    </text>
    <text x="2" y="72" font-family="system-ui, -apple-system, Segoe UI, Roboto, Arial" font-size="16" font-weight="600" fill="#7A6A55">
      Madu asli • Natural • Premium
    </text>
  </g>
</svg>
