<svg xmlns="http://www.w3.org/2000/svg" width="96" height="96" viewBox="0 0 96 96" fill="none">
  <!-- Wings -->
  <path d="M22 38c-10 4-16 11-16 19 0 12 14 16 22 9" fill="none" stroke="#D8C3A5" stroke-width="5" stroke-linecap="round" stroke-linejoin="round"></path>
  <path d="M74 38c10 4 16 11 16 19 0 12-14 16-22 9" fill="none" stroke="#D8C3A5" stroke-width="5" stroke-linecap="round" stroke-linejoin="round"></path>

  <!-- Antenna -->
  <path d="M42 18c-6-8-12-10-18-9" stroke="#8A5A1E" stroke-width="5" stroke-linecap="round"></path>
  <path d="M54 18c6-8 12-10 18-9" stroke="#8A5A1E" stroke-width="5" stroke-linecap="round"></path>
  <circle cx="23" cy="9" r="4" fill="#8A5A1E"></circle>
  <circle cx="73" cy="9" r="4" fill="#8A5A1E"></circle>

  <!-- Honey drop body -->
  <path d="M48 14c14 20 28 38 28 58 0 18-13 32-28 32S20 90 20 72c0-20 14-38 28-58Z" fill="#F5B700" stroke="#C98A00" stroke-width="5" stroke-linejoin="round"></path>

  <!-- Stripes -->
  <path d="M30 66h36" stroke="#8A5A1E" stroke-width="5" stroke-linecap="round" opacity=".85"></path>
  <path d="M33 78h30" stroke="#8A5A1E" stroke-width="5" stroke-linecap="round" opacity=".65"></path>

  <!-- Shine -->
  <path d="M44 30c-8 11-12 21-12 31" stroke="#FFE39A" stroke-width="7" stroke-linecap="round" opacity=".9"></path>
</svg>
